<svg width="60" height="42" viewBox="0 0 60 42" fill="none" xmlns="http://www.w3.org/2000/svg">
<path d="M58.2188 19.3125C59.3438 20.4375 60 21.9375 60 23.5312V31.5C60 32.3438 59.25 33 58.5 33H56.8125C56.9062 33.5625 57 34.0312 57 34.5C57 38.7188 53.625 42 49.5 42C45.2812 42 42 38.7188 42 34.5C42 34.0312 42 33.5625 42.0938 33H26.8125C26.9062 33.5625 27 34.0312 27 34.5C27 38.7188 23.625 42 19.5 42C16.9688 42 14.8125 40.875 13.5 39C12.0938 40.875 9.9375 42 7.5 42C3.28125 42 0 38.7188 0 34.5V3C0 1.40625 1.3125 0 3 0H42C43.5938 0 45 1.40625 45 3V12.0938H48.4688C50.0625 12.0938 51.5625 12.6562 52.6875 13.7812L58.2188 19.3125ZM7.5 37.5C9.09375 37.5 10.5 36.1875 10.5 34.5C10.5 32.9062 9.09375 31.5 7.5 31.5C5.8125 31.5 4.5 32.9062 4.5 34.5C4.5 36.1875 5.8125 37.5 7.5 37.5ZM19.5 37.5C21.0938 37.5 22.5 36.1875 22.5 34.5C22.5 32.9062 21.0938 31.5 19.5 31.5C17.8125 31.5 16.5 32.9062 16.5 34.5C16.5 36.1875 17.8125 37.5 19.5 37.5ZM45 16.5V21H53.625L49.5 16.9688C49.2188 16.6875 48.8438 16.5 48.4688 16.5H45ZM49.5 37.5C51.0938 37.5 52.5 36.1875 52.5 34.5C52.5 32.9062 51.0938 31.5 49.5 31.5C47.8125 31.5 46.5 32.9062 46.5 34.5C46.5 36.1875 47.8125 37.5 49.5 37.5Z" fill="black"/>
</svg>
