<svg width="49" height="56" viewBox="0 0 49 56" fill="none" xmlns="http://www.w3.org/2000/svg">
<path d="M47.6875 17.5H1.3125C0.546875 17.5 0 16.9531 0 16.1875V12.25C0 9.40625 2.29688 7 5.25 7H10.5V1.3125C10.5 0.65625 11.0469 0 11.8125 0H16.1875C16.8438 0 17.5 0.65625 17.5 1.3125V7H31.5V1.3125C31.5 0.65625 32.0469 0 32.8125 0H37.1875C37.8438 0 38.5 0.65625 38.5 1.3125V7H43.75C46.5938 7 49 9.40625 49 12.25V16.1875C49 16.9531 48.3438 17.5 47.6875 17.5ZM1.3125 21H47.6875C48.3438 21 49 21.6562 49 22.3125V50.75C49 53.7031 46.5938 56 43.75 56H5.25C2.29688 56 0 53.7031 0 50.75V22.3125C0 21.6562 0.546875 21 1.3125 21ZM37.7344 31.5L34.6719 28.4375C34.125 27.8906 33.25 27.8906 32.8125 28.4375L21.2188 39.9219L16.1875 34.8906C15.6406 34.3438 14.7656 34.3438 14.3281 34.8906L11.1562 37.9531C10.7188 38.5 10.7188 39.2656 11.1562 39.8125L20.2344 48.8906C20.6719 49.4375 21.5469 49.4375 22.0938 48.8906L37.7344 33.3594C38.1719 32.9219 38.1719 32.0469 37.7344 31.5Z" fill="black"/>
</svg>
