<svg width="60" height="48" viewBox="0 0 60 48" fill="none" xmlns="http://www.w3.org/2000/svg">
<path d="M58.5 33C59.25 33 60 33.75 60 34.5V37.5C60 38.3438 59.25 39 58.5 39H54C54 43.9688 49.9688 48 45 48C40.0312 48 36 43.9688 36 39H24C24 43.9688 19.9688 48 15 48C10.0312 48 6 43.9688 6 39H4.5C1.96875 39 0 37.0312 0 34.5V4.5C0 2.0625 1.96875 0 4.5 0H34.5C36.9375 0 39 2.0625 39 4.5V9H43.125C44.25 9 45.4688 9.5625 46.3125 10.4062L55.5938 19.6875C56.4375 20.5312 57 21.75 57 22.875V33H58.5ZM15 43.5C17.4375 43.5 19.5 41.5312 19.5 39C19.5 36.5625 17.4375 34.5 15 34.5C12.4688 34.5 10.5 36.5625 10.5 39C10.5 41.5312 12.4688 43.5 15 43.5ZM45 43.5C47.4375 43.5 49.5 41.5312 49.5 39C49.5 36.5625 47.4375 34.5 45 34.5C42.4688 34.5 40.5 36.5625 40.5 39C40.5 41.5312 42.4688 43.5 45 43.5ZM52.5 24V22.875L43.125 13.5H39V24H52.5Z" fill="black"/>
</svg>
