<svg width="56" height="56" viewBox="0 0 56 56" fill="none" xmlns="http://www.w3.org/2000/svg">
<path d="M28 0.875C42.9844 0.875 55.125 13.0156 55.125 28C55.125 42.9844 42.9844 55.125 28 55.125C13.0156 55.125 0.875 42.9844 0.875 28C0.875 13.0156 13.0156 0.875 28 0.875ZM38.0625 35.1094C38.2812 34.8906 38.5 34.4531 38.5 34.0156C38.5 33.5781 38.1719 33.0312 37.8438 32.7031L31.5 28V12.25C31.5 11.375 30.625 10.5 29.75 10.5H26.25C25.2656 10.5 24.5 11.375 24.5 12.25V29.3125C24.5 30.5156 25.1562 32.0469 26.1406 32.7031L33.4688 38.1719C33.6875 38.3906 34.125 38.6094 34.4531 38.6094C35 38.6094 35.5469 38.2812 35.875 37.8438L38.0625 35.1094Z" fill="black"/>
</svg>
