<svg width="61" height="49" viewBox="0 0 61 49" fill="none" xmlns="http://www.w3.org/2000/svg">
<path d="M5.6875 35.25L1 17.9062C0.8125 17.0625 1.28125 16.2188 2.03125 16.0312L9.34375 14.0625L11.6875 22.7812L17.4062 21.1875L15.1562 12.5625L22.375 10.5938C23.125 10.4062 23.9688 10.875 24.1562 11.625L28.8438 29.0625C29.0312 29.8125 28.5625 30.6562 27.8125 30.8438L7.46875 36.2812C6.71875 36.5625 5.875 36.0938 5.6875 35.25ZM37 0H61V37.5C61 43.3125 56.2188 48 50.5 48C44.7812 48 40.1875 43.5938 40 37.9688L3.0625 48C2.6875 48.0938 2.3125 47.9062 2.125 47.5312L1 43.125C0.90625 42.75 1.09375 42.375 1.46875 42.1875L34 33.375V3C34 1.40625 35.3125 0 37 0ZM50.5 42C52.9375 42 55 40.0312 55 37.5C55 35.0625 52.9375 33 50.5 33C47.9688 33 46 35.0625 46 37.5C46 40.0312 47.9688 42 50.5 42Z" fill="black"/>
</svg>
