<svg width="17" height="17" viewBox="0 0 17 17" fill="none" xmlns="http://www.w3.org/2000/svg">
    <path
        d="M3.5 12V4.5H3.85156V12H3.5ZM4.00781 12V4.5H4.20312V12H4.00781ZM4.55469 12V4.5H4.71094V12H4.55469ZM5.41406 12V4.5H5.58984V12H5.41406ZM6.11719 12V4.5H6.46875V12H6.11719ZM6.99609 12V4.5H7.17188V12H6.99609ZM7.34766 12V4.5H7.52344V12H7.34766ZM7.69922 12V4.5H7.875V12H7.69922ZM8.40234 12V4.5H8.75391V12H8.40234ZM9.28125 12V4.5H9.63281V12H9.28125ZM9.98438 12V4.5H10.3359V12H9.98438ZM10.6875 12V4.5H11.0391V12H10.6875ZM11.2148 12V4.5H11.5664V12H11.2148ZM12.0938 12V4.5H12.6211V12H12.0938ZM12.7969 12V4.5H12.9727V12H12.7969ZM13.1484 12V4.5H13.5V12H13.1484Z"
        fill="white" />
    <path
        d="M0.625 5.57812V1.21875C0.625 0.761719 0.976562 0.375 1.46875 0.375H5.82812C6.03906 0.375 6.25 0.585938 6.25 0.796875V2.20312C6.25 2.44922 6.03906 2.625 5.82812 2.625H2.875V5.57812C2.875 5.82422 2.66406 6 2.45312 6H1.04688C0.800781 6 0.625 5.82422 0.625 5.57812ZM10.75 0.796875C10.75 0.585938 10.9258 0.375 11.1719 0.375H15.5312C15.9883 0.375 16.375 0.761719 16.375 1.21875V5.57812C16.375 5.82422 16.1641 6 15.9531 6H14.5469C14.3008 6 14.125 5.82422 14.125 5.57812V2.625H11.1719C10.9258 2.625 10.75 2.44922 10.75 2.20312V0.796875ZM15.9531 10.5C16.1641 10.5 16.375 10.7109 16.375 10.9219V15.2812C16.375 15.7734 15.9883 16.125 15.5312 16.125H11.1719C10.9258 16.125 10.75 15.9492 10.75 15.7031V14.2969C10.75 14.0859 10.9258 13.875 11.1719 13.875H14.125V10.9219C14.125 10.7109 14.3008 10.5 14.5469 10.5H15.9531ZM6.25 15.7031C6.25 15.9492 6.03906 16.125 5.82812 16.125H1.46875C0.976562 16.125 0.625 15.7734 0.625 15.2812V10.9219C0.625 10.7109 0.800781 10.5 1.04688 10.5H2.45312C2.66406 10.5 2.875 10.7109 2.875 10.9219V13.875H5.82812C6.03906 13.875 6.25 14.0859 6.25 14.2969V15.7031Z"
        fill="white" />
</svg>