<svg width="22" height="17" viewBox="0 0 22 17" fill="none" xmlns="http://www.w3.org/2000/svg">
<path d="M0.429688 5.95703C0.257813 5.82813 0 5.95703 0 6.17188L0 14.9375C0 16.0977 0.945313 17 2.0625 17L19.9375 17C21.0977 17 22 16.0977 22 14.9375L22 6.17188C22 5.95703 21.7852 5.82812 21.6133 5.95703C20.625 6.73047 19.3789 7.67578 14.9961 10.8555C14.0938 11.5 12.5469 12.918 11 12.918C9.49609 12.918 7.90625 11.5 7.04688 10.8555C2.66406 7.67578 1.41797 6.73047 0.429688 5.95703ZM11 11.5C12.0313 11.543 13.4492 10.2539 14.1797 9.73828C19.8945 5.61328 20.3242 5.22656 21.6133 4.19531C21.8711 4.02344 22 3.72266 22 3.37891V2.5625C22 1.44531 21.0977 0.5 19.9375 0.5L2.0625 0.5C0.945312 0.5 0 1.44531 0 2.5625V3.37891C0 3.72266 0.171875 4.02344 0.429688 4.19531C1.71875 5.22656 2.14844 5.61328 7.86328 9.73828C8.59375 10.2539 10.0117 11.543 11 11.5Z" fill="#FCFCFC"/>
</svg>
