<svg width="60" height="42" viewBox="0 0 60 42" fill="none" xmlns="http://www.w3.org/2000/svg">
    <path
        d="M9 18C5.625 18 3 15.375 3 12C3 8.71875 5.625 6 9 6C12.2812 6 15 8.71875 15 12C15 15.375 12.2812 18 9 18ZM51 18C47.625 18 45 15.375 45 12C45 8.71875 47.625 6 51 6C54.2812 6 57 8.71875 57 12C57 15.375 54.2812 18 51 18ZM54 21C57.2812 21 60 23.7188 60 27V30C60 31.6875 58.5938 33 57 33H50.8125C50.1562 28.5938 47.5312 24.8438 43.6875 22.7812C44.8125 21.75 46.3125 21 48 21H54ZM30 21C24.1875 21 19.5 16.3125 19.5 10.5C19.5 4.78125 24.1875 0 30 0C35.7188 0 40.5 4.78125 40.5 10.5C40.5 16.3125 35.7188 21 30 21ZM37.125 24C43.125 24 48 28.875 48 34.875V37.5C48 40.0312 45.9375 42 43.5 42H16.5C13.9688 42 12 40.0312 12 37.5V34.875C12 28.875 16.7812 24 22.7812 24H23.5312C25.5 24.9375 27.6562 25.5 30 25.5C32.25 25.5 34.4062 24.9375 36.375 24H37.125ZM16.2188 22.7812C12.375 24.8438 9.75 28.5938 9.09375 33H3C1.3125 33 0 31.6875 0 30V27C0 23.7188 2.625 21 6 21H12C13.5938 21 15.0938 21.75 16.2188 22.7812Z"
        fill="#88a1d3" />
</svg>