<svg width="23" height="23" viewBox="0 0 23 23" fill="none" xmlns="http://www.w3.org/2000/svg">
<path d="M0.816406 1.82422C0.34375 1.95313 0 2.33984 0 2.8125C0 13.8555 8.9375 22.75 19.9375 22.75C20.4531 22.75 20.8398 22.4492 20.9688 21.9766L22 17.5078C22.0859 17.0352 21.8711 16.5195 21.3984 16.3047L16.5859 14.2422C16.1563 14.0703 15.6836 14.1992 15.3828 14.543L13.2344 17.1641C9.88281 15.5742 7.17578 12.8242 5.62891 9.55859L8.25 7.41016C8.59375 7.10938 8.72266 6.63672 8.55078 6.20703L6.48828 1.39453C6.27344 0.921875 5.75781 0.664063 5.28516 0.792969L0.816406 1.82422Z" fill="#FCFCFC"/>
</svg>
