<svg width="14" height="15" viewBox="0 0 14 15" fill="none" xmlns="http://www.w3.org/2000/svg">
<path d="M9.45 4.9H4.47187C4.89375 2.39688 5.85 0.625 6.975 0.625C8.07187 0.625 9.05625 2.39688 9.45 4.9ZM4.275 7.6C4.275 6.98125 4.30312 6.39063 4.35937 5.8H9.5625C9.61875 6.39063 9.64687 6.98125 9.64687 7.6C9.64687 8.24688 9.61875 8.8375 9.5625 9.4H4.35937C4.30312 8.8375 4.275 8.24688 4.275 7.6ZM13.3875 4.9H10.35C10.0969 3.325 9.64687 1.89063 8.94375 0.934375C10.9687 1.525 12.6 3.01563 13.3875 4.9ZM4.97812 0.934375C4.275 1.89063 3.825 3.325 3.57187 4.9H0.534375C1.32187 3.01563 2.95312 1.525 4.97812 0.934375ZM13.6969 5.8C13.8375 6.39063 13.9219 6.98125 13.9219 7.6C13.9219 8.24688 13.8375 8.8375 13.6969 9.4H10.4625C10.5187 8.80938 10.575 8.21875 10.575 7.6C10.575 7.00938 10.5187 6.39063 10.4625 5.8H13.6969ZM3.375 7.6C3.375 8.21875 3.40312 8.80938 3.45937 9.4H0.225C0.084375 8.8375 0 8.24688 0 7.6C0 6.98125 0.084375 6.39063 0.225 5.8H3.45937C3.40312 6.39063 3.375 7.00938 3.375 7.6ZM4.47187 10.3H9.45C9.05625 12.8313 8.07187 14.575 6.975 14.575C5.85 14.575 4.89375 12.8313 4.47187 10.3ZM8.94375 14.2937C9.64687 13.3375 10.125 11.9031 10.35 10.3H13.3875C12.6 12.2125 10.9687 13.7031 8.94375 14.2937ZM0.534375 10.3H3.57187C3.825 11.9031 4.275 13.3375 4.97812 14.2937C2.95312 13.7031 1.32187 12.2125 0.534375 10.3Z" fill="#555555"/>
</svg>
