<svg width="28" height="28" viewBox="0 0 28 28" fill="none" xmlns="http://www.w3.org/2000/svg">
<path d="M11.625 10.6875L17.625 14.0625L11.625 17.4375L11.625 10.6875ZM28 3L28 25C28 26.6875 26.625 28 25 28L3 28C1.3125 28 0 26.6875 0 25L0 3C0 1.375 1.3125 0 3 0L25 0C26.625 0 28 1.375 28 3ZM25.375 14.0625C25.375 14.0625 25.375 10.3125 24.875 8.5625C24.625 7.5625 23.8125 6.75 22.875 6.5C21.0625 6 14 6 14 6C14 6 6.875 6 5.0625 6.5C4.125 6.75 3.3125 7.5625 3.0625 8.5625C2.625 10.3125 2.625 14.0625 2.625 14.0625C2.625 14.0625 2.625 17.75 3.0625 19.5625C3.3125 20.5625 4.125 21.3125 5.0625 21.5625C6.875 22 14 22 14 22C14 22 21.0625 22 22.875 21.5625C23.8125 21.3125 24.625 20.5625 24.875 19.5625C25.375 17.75 25.375 14.0625 25.375 14.0625Z" fill="black"/>
</svg>
