<svg width="20" height="20" viewBox="0 0 20 20" fill="none" xmlns="http://www.w3.org/2000/svg">
<path d="M7.99219 7.47266L12.1172 9.79297L7.99219 12.1133L7.99219 7.47266ZM19.25 2.1875L19.25 17.3125C19.25 18.4727 18.3047 19.375 17.1875 19.375L2.0625 19.375C0.902344 19.375 0 18.4727 0 17.3125L0 2.1875C0 1.07031 0.902344 0.125 2.0625 0.125L17.1875 0.125C18.3047 0.125 19.25 1.07031 19.25 2.1875ZM17.4453 9.79297C17.4453 9.79297 17.4453 7.21484 17.1016 6.01172C16.9297 5.32422 16.3711 4.76562 15.7266 4.59375C14.4805 4.25 9.625 4.25 9.625 4.25C9.625 4.25 4.72656 4.25 3.48047 4.59375C2.83594 4.76562 2.27734 5.32422 2.10547 6.01172C1.80469 7.21484 1.80469 9.79297 1.80469 9.79297C1.80469 9.79297 1.80469 12.3281 2.10547 13.5742C2.27734 14.2617 2.83594 14.7773 3.48047 14.9492C4.72656 15.25 9.625 15.25 9.625 15.25C9.625 15.25 14.4805 15.25 15.7266 14.9492C16.3711 14.7773 16.9297 14.2617 17.1016 13.5742C17.4453 12.3281 17.4453 9.79297 17.4453 9.79297Z" fill="white"/>
</svg>
