<svg width="20" height="20" viewBox="0 0 20 20" fill="none" xmlns="http://www.w3.org/2000/svg">
    <path
        d="M17.1875 0.125C18.3047 0.125 19.25 1.07031 19.25 2.1875L19.25 17.3125C19.25 18.4727 18.3047 19.375 17.1875 19.375L11.2578 19.375L11.2578 12.8437L13.75 12.8437L14.2227 9.75L11.2578 9.75L11.2578 7.77344C11.2578 6.91406 11.6875 6.09766 13.0195 6.09766H14.3516L14.3516 3.47656C14.3516 3.47656 13.1484 3.26172 11.9453 3.26172C9.53906 3.26172 7.94922 4.76562 7.94922 7.42969L7.94922 9.75L5.24219 9.75L5.24219 12.8437L7.94922 12.8437L7.94922 19.375L2.0625 19.375C0.902344 19.375 0 18.4727 0 17.3125L0 2.1875C0 1.07031 0.902344 0.125 2.0625 0.125L17.1875 0.125Z"
        fill="white" />
</svg>