<svg width="28" height="28" viewBox="0 0 28 28" fill="none" xmlns="http://www.w3.org/2000/svg">
<path d="M14 10.6875C15.8125 10.6875 17.3125 12.1875 17.3125 14C17.3125 14.625 17.125 15.1875 16.875 15.6875C15.5625 17.9375 12.375 17.9375 11.0625 15.6875C9.8125 13.5 11.375 10.6875 14 10.6875ZM21.75 8.125C22.3125 9.4375 22.1875 12.5625 22.1875 14C22.1875 15.5 22.3125 18.625 21.75 19.9375C21.4375 20.8125 20.75 21.5 19.875 21.8125C18.5625 22.375 15.4375 22.25 14 22.25C12.5 22.25 9.375 22.375 8.0625 21.8125C7.1875 21.5 6.5 20.8125 6.1875 19.9375C5.6875 18.625 5.75 15.5 5.75 14C5.75 12.5625 5.6875 9.4375 6.1875 8.125C6.5 7.25 7.1875 6.5625 8.0625 6.25C9.375 5.6875 12.5 5.8125 14 5.8125C15.4375 5.8125 18.5625 5.6875 19.875 6.25C20.75 6.5625 21.4375 7.25 21.75 8.125ZM14 19.125C16.8125 19.1875 19.125 16.875 19.125 14C19.125 13.125 18.875 12.25 18.4375 11.4375C16.4375 8.0625 11.5 8.0625 9.5 11.4375C7.5625 14.875 10 19.125 14 19.125ZM19.3125 9.875C19.9375 9.875 20.5 9.375 20.5 8.6875C20.5 8.5 20.4375 8.25 20.3125 8.0625C19.875 7.3125 18.75 7.3125 18.25 8.0625C17.8125 8.875 18.375 9.875 19.3125 9.875ZM25 0C26.625 0 28 1.375 28 3L28 25C28 26.6875 26.625 28 25 28L3 28C1.3125 28 0 26.6875 0 25L0 3C0 1.375 1.3125 0 3 0L25 0ZM23.875 18.125C24 16.5 24 11.5625 23.875 9.9375C23.8125 8.3125 23.4375 6.875 22.3125 5.75C21.125 4.5625 19.6875 4.1875 18.125 4.125C16.4375 4 11.5 4 9.875 4.125C8.25 4.1875 6.8125 4.5625 5.6875 5.6875C4.5 6.875 4.125 8.3125 4.0625 9.875C3.9375 11.5625 3.9375 16.5 4.0625 18.125C4.125 19.75 4.5 21.1875 5.6875 22.3125C6.8125 23.5 8.25 23.875 9.875 23.9375C11.5 24.0625 16.4375 24.0625 18.125 23.9375C19.6875 23.875 21.125 23.5 22.3125 22.3125C23.4375 21.1875 23.8125 19.75 23.875 18.125Z" fill="black"/>
</svg>
