<svg width="17" height="23" viewBox="0 0 17 23" fill="none" xmlns="http://www.w3.org/2000/svg">
<path d="M9.60938 22.3203C15.8828 13.2969 17 12.3516 17 9C17 4.44531 13.3477 0.75 8.75 0.75C4.19531 0.75 0.5 4.44531 0.5 9C0.5 12.3516 1.66016 13.2969 7.93359 22.3203C8.32031 22.9219 9.22266 22.9219 9.60938 22.3203ZM8.75 12.4375C6.85938 12.4375 5.3125 10.9336 5.3125 9C5.3125 7.10938 6.85938 5.5625 8.75 5.5625C10.6836 5.5625 12.1875 7.10938 12.1875 9C12.1875 10.9336 10.6836 12.4375 8.75 12.4375Z" fill="#FCFCFC"/>
</svg>
